<svg width="18" height="20" viewBox="0 0 18 20" fill="none" xmlns="http://www.w3.org/2000/svg">
<path d="M13 7H5M13 9.99988H5M10 13H5M16.449 18.396L15.459 18.8935C15.1785 19.0345 14.8481 19.0355 14.5667 18.8964L12.9942 18.1188L11.4533 18.8929C11.172 19.0342 10.8406 19.0348 10.5588 18.8945L9 18.1185L7.44124 18.8945C7.15942 19.0348 6.82799 19.0342 6.54668 18.8929L5.00578 18.1188L3.4333 18.8964C3.15191 19.0355 2.82151 19.0345 2.54102 18.8935L1.55102 18.396C1.21321 18.2263 1.00001 17.8805 1 17.5025V2.49752C1 2.11947 1.2132 1.77374 1.551 1.604L2.541 1.10648C2.82149 0.965524 3.15189 0.964461 3.43328 1.10361L5.00576 1.8812L6.54666 1.10713C6.82797 0.965809 7.1594 0.965209 7.44122 1.10551L9 1.88151L10.5588 1.10551C10.8406 0.965209 11.172 0.965809 11.4533 1.10713L12.9942 1.8812L14.5667 1.10361C14.8481 0.964461 15.1785 0.965524 15.459 1.10648L16.449 1.604C16.7868 1.77374 17 2.11946 17 2.49752V17.5025C17 17.8806 16.7868 18.2263 16.449 18.396Z" stroke="#666666" stroke-width="1.5" stroke-linecap="round" stroke-linejoin="round"/>
</svg>
